<?xml version="1.0" encoding="UTF-8" standalone="no"?>
<svg
   width="900px"
   height="900px"
   viewBox="0 0 900 900"
   version="1.1"
   xml:space="preserve"
   id="SVGRoot"
   xmlns="http://www.w3.org/2000/svg"
   xmlns:svg="http://www.w3.org/2000/svg"><defs
   id="defs5" />

<style
   type="text/css"
   id="style1">
g.prefab path {
  vector-effect:non-scaling-stroke;
  -inkscape-stroke:hairline;
  fill: none;
  fill-opacity: 1;
  stroke-opacity: 1;
  stroke: #00349c;
}
</style>

<g
   id="g37"
   transform="translate(-3.71747,28.624523)"><path
     style="fill:#0c5460;stroke-width:3.28523"
     d="m 764.30838,769.09152 c -55.22384,-3.26566 -168.5184,-26.6351 -181.77447,-37.4949 -8.21301,-6.72837 24.92606,-80.7613 47.27795,-105.61927 l 12.5807,-13.99124 79.83299,79.69468 c 71.02809,70.90512 78.74727,79.62766 69.98913,79.08677 -5.41407,-0.33434 -17.9719,-1.08856 -27.9063,-1.67604 z"
     id="path6" /><path
     style="fill:#0c5460;stroke-width:3.28523"
     d="m 724.8993,684.11924 -77.1761,-77.49792 14.77838,-12.93184 c 22.3354,-19.54455 61.82018,-38.91535 95.74477,-46.97134 8.34664,-1.98206 9.00161,-1.12961 15.44107,20.09672 17.33385,57.13768 31.12494,139.25242 29.36988,174.87374 l -0.98189,19.92855 z"
     id="path7" /><path
     style="fill:#0c5460;stroke-width:3.28523"
     d="m 105.8651,736.8685 c 3.387,-46.64638 11.00418,-95.38801 21.34827,-136.60594 13.76886,-54.86445 14.4239,-56.2483 25.38077,-53.61905 34.16628,8.19863 72.64261,27.46632 98.02888,49.08969 l 12.8616,10.95521 -79.88355,79.87873 -79.8836,79.87879 z"
     id="path8" /><path
     style="fill:#0c5460;stroke-width:3.28523"
     d="m 187.95699,692.49598 c 43.32529,-43.38371 80.25974,-78.40593 82.07658,-77.82707 7.59895,2.42097 38.06948,50.25834 46.99848,73.78548 17.12461,45.12176 17.92566,41.88695 -12.7762,51.59243 -39.74945,12.5656 -101.17251,24.09154 -148.80204,27.92247 -23.292,1.8734 -43.2313,3.4062 -44.30957,3.4062 -1.07827,0 33.48746,-35.49578 76.81275,-78.87951 z"
     id="path9" /><path
     style="fill:#0c5460;stroke-width:3.28523"
     d="m 142.53948,292.48087 c -3.48343,-5.64022 -18.41413,-62.82059 -24.69596,-94.57849 -6.2313,-31.50255 -15.55189,-119.132325 -12.94839,-121.737605 0.68883,-0.68934 36.65328,34.279365 79.921,77.708235 l 78.66849,78.96158 -13.13632,11.56186 c -28.37915,24.97761 -101.84318,57.74372 -107.80882,48.08442 z"
     id="path10" /><path
     style="fill:#0c5460;stroke-width:3.28523"
     d="m 189.59264,148.60669 -77.12371,-77.229915 24.60446,0.0601 c 43.21671,0.10572 128.36955,15.16214 178.13229,31.496605 17.74415,5.82444 17.67631,5.10395 4.06574,43.18055 -10.36986,29.01041 -42.36917,79.72246 -50.30492,79.72246 -1.23759,0 -36.95582,-34.75348 -79.37386,-77.2299 z"
     id="path11" /><path
     style="fill:#0c5460;stroke-width:3.28523"
     d="m 628.05968,211.86947 c -16.81844,-19.63252 -29.37713,-42.71317 -39.20852,-72.05818 -4.64849,-13.87502 -8.45181,-26.76756 -8.45181,-28.65016 0,-3.71549 40.39497,-16.733255 77.1761,-24.870935 38.76532,-8.57668 87.35077,-14.87368 114.91697,-14.89403 l 26.24651,-0.0207 -77.12371,77.229915 c -42.41805,42.47643 -78.12871,77.2299 -79.35706,77.2299 -1.22836,0 -7.61768,-6.28519 -14.19848,-13.96712 z"
     id="path12" /><path
     style="fill:#0c5460;stroke-width:3.28523"
     d="M 733.01473,285.57679 C 706.418,276.31111 666.27894,252.67654 654.45929,239.32201 l -6.40029,-7.23139 77.82924,-77.88347 77.82923,-77.883485 -0.0147,22.99599 C 803.68507,125.583 793.636,198.12112 785.68133,229.39981 c -11.21858,44.11283 -18.50371,65.44922 -22.3326,65.40676 -2.18134,-0.0236 -15.83145,-4.17757 -30.33358,-9.22978 z"
     id="path13" /><path
     style="fill:#96242f;stroke-width:3.28523"
     d="m 238.69748,478.06619 c -10.83465,-14.91195 -23.44365,-33.39785 -28.02005,-41.07973 l -8.32073,-13.96712 101.1719,0.0731 101.17192,0.0731 -8.21023,6.7308 c -33.25273,27.26089 -118.29998,75.04195 -133.90755,75.23165 -2.30226,0.0265 -13.05064,-12.14986 -23.88526,-27.06177 z"
     id="path14" /><path
     style="fill:#96242f;stroke-width:3.28523"
     d="m 204.758,412.3386 c 18.92997,-32.17836 53.30924,-78.06499 58.45527,-78.02131 1.95551,0.0177 19.81169,7.92381 39.68044,17.57158 33.73588,16.38136 69.7306,38.76029 91.38551,56.81699 l 9.28321,7.74073 H 302.95187 c -79.58792,0 -100.10554,-0.85838 -98.19387,-4.10799 z"
     id="path15" /><path
     style="fill:#96242f;stroke-width:3.28523"
     d="m 434.25734,346.71628 c -21.73391,-29.2219 -45.37847,-70.63532 -56.44704,-98.86683 l -8.96049,-22.85475 9.71512,-7.96042 c 5.34335,-4.37826 23.75462,-17.42622 40.914,-28.9955 l 31.19885,-21.03511 0.90545,48.92965 c 0.49801,26.91131 0.49801,72.31415 0,100.89522 l -0.90545,51.96554 z"
     id="path16" /><path
     style="fill:#96242f;stroke-width:3.28523"
     d="m 458.96104,269.38112 c -0.04,-54.67713 1.12774,-99.41297 2.59536,-99.41297 2.56209,0 46.57715,29.36543 68.76058,45.87483 5.8703,4.36882 10.65204,9.51376 10.62608,11.43323 -0.1817,13.43043 -50.17819,101.90555 -75.32775,133.30192 l -6.58124,8.21595 z"
     id="path17" /><path
     style="fill:#96242f;stroke-width:3.28523"
     d="m 516.35959,408.30029 c 29.26544,-24.10097 84.59679,-56.40576 119.37881,-69.69839 14.25885,-5.4493 14.40066,-5.43223 20.71273,2.49353 10.19012,12.79525 45.53824,65.15965 47.58043,70.48524 1.62258,4.23132 -11.13577,4.86376 -97.82917,4.84959 l -99.69506,-0.0177 z"
     id="path18" /><path
     style="fill:#96242f;stroke-width:3.28523"
     d="m 619.80843,494.30752 c -13.54688,-5.9351 -34.23664,-16.42259 -45.97726,-23.30557 -21.00502,-12.31428 -65.68181,-44.04595 -65.68181,-46.65053 0,-0.73266 45.11917,-1.33208 100.26483,-1.33208 h 100.26484 l -16.99195,25.46942 c -24.72178,37.05578 -39.91281,56.69558 -43.81771,56.64992 -1.88666,-0.0207 -14.51409,-4.89611 -28.06094,-10.83116 z"
     id="path19" /><path
     style="fill:#96242f;stroke-width:3.28523"
     d="M 458.88801,572.25659 V 471.81073 l 7.75179,9.28967 c 23.82518,28.55186 74.13259,117.5465 74.30326,131.44362 0.0489,3.98995 -30.42316,27.19292 -63.17154,48.10187 l -18.88351,12.0566 z"
     id="path20" /><path
     style="fill:#96242f;stroke-width:3.28523"
     d="M 421.12096,653.23899 C 404.86474,642.46156 386.48979,629.38447 380.28781,624.1788 l -11.27639,-9.46491 7.58793,-20.30408 c 9.57899,-25.63177 35.33016,-70.91337 57.21569,-100.60959 l 16.86274,-22.88091 0.90545,51.84183 c 0.49801,28.51297 0.49801,73.94388 0,100.95749 l -0.90545,49.11567 z"
     id="path21" /><path
     style="fill:#5d37a2;stroke-width:3.28523"
     d="m 545.48301,604.91253 c -11.53944,-33.12388 -42.7679,-88.32996 -70.53078,-124.68514 -14.7426,-19.30531 -15.13245,-21.19527 -6.06555,-29.40642 6.64198,-6.01509 7.36796,-5.42775 67.14267,54.32307 33.23544,33.22214 59.78585,61.44384 59.00088,62.71485 -0.785,1.27098 -11.77831,11.49422 -24.42958,22.71822 -19.79783,17.56436 -23.29703,19.56145 -25.11764,14.33542 z"
     id="path22" /><path
     style="fill:#5d37a2;stroke-width:3.28523"
     d="m 541.59702,500.85708 c -32.84621,-32.90518 -59.72039,-60.88804 -59.72039,-62.18414 0,-1.29611 3.56352,-4.6931 7.91886,-7.54883 7.65856,-5.02156 8.67545,-4.60728 30.9312,12.60036 28.51585,22.04791 66.55297,44.35774 99.70488,58.4797 l 25.25381,10.7576 -19.87468,22.43321 c -10.93109,12.33828 -20.91389,23.07594 -22.18401,23.86145 -1.27012,0.78549 -29.18347,-25.4942 -62.02967,-58.39935 z"
     id="path23" /><path
     style="fill:#5d37a2;stroke-width:3.28523"
     d="m 488.24927,408.02233 -7.72621,-8.22993 60.61144,-60.8532 60.61141,-60.85319 20.43737,22.34936 c 11.24053,12.29216 20.47705,23.34448 20.52558,24.56067 0.0486,1.21622 -15.31604,9.57488 -34.14346,18.57481 -37.36518,17.86138 -73.86079,40.34934 -97.47175,60.06033 l -15.11815,12.62104 z"
     id="path24" /><path
     style="fill:#5d37a2;stroke-width:3.28523"
     d="m 466.46351,386.41659 -7.02042,-7.02535 18.79832,-25.01684 c 10.33909,-13.7593 23.45307,-32.44448 29.14218,-41.52268 11.54527,-18.42299 36.89075,-71.20054 36.89075,-76.81866 0,-7.45218 7.97228,-3.05491 30.17691,16.64469 l 22.84574,20.26838 -60.13995,60.2479 c -33.07697,33.13636 -60.93492,60.24788 -61.90651,60.24788 -0.9716,0 -4.92577,-3.1614 -8.78702,-7.02532 z"
     id="path25" /><path
     style="fill:#5d37a2;stroke-width:3.28523"
     d="m 374.23652,333.38009 -59.95421,-60.06184 14.01023,-13.11215 c 7.70564,-7.21171 18.56335,-17.19277 24.12825,-22.18013 l 10.11798,-9.06793 9.5797,23.81304 c 11.94585,29.69474 39.01389,75.83306 60.65888,103.39501 16.35954,20.83164 16.43015,21.02473 10.61657,29.02022 -3.21888,4.42698 -6.60641,8.09554 -7.52785,8.15233 -0.9214,0.0569 -28.65474,-26.92453 -61.62955,-59.95855 z"
     id="path26" /><path
     style="fill:#5d37a2;stroke-width:3.28523"
     d="m 386.63805,394.62103 c -32.03813,-23.76728 -62.54171,-41.79239 -93.55828,-55.28518 -13.74677,-5.98015 -24.99738,-12.15053 -25.00132,-13.71202 -0.003,-1.56148 9.15645,-12.95607 20.35642,-25.32134 l 20.36355,-22.48224 60.17992,60.15589 60.17996,60.15591 -7.05421,7.51407 c -3.8798,4.13275 -7.90496,7.45397 -8.94478,7.38054 -1.03982,-0.0734 -12.9744,-8.35595 -26.52126,-18.40563 z"
     id="path27" /><path
     style="fill:#5d37a2;stroke-width:3.28523"
     d="m 287.01593,537.89671 -21.88121,-23.65023 45.15223,-22.51229 c 24.83371,-12.38177 58.28424,-32.30352 74.33448,-44.27053 l 29.18227,-21.75822 7.74304,7.74851 7.7431,7.74845 -60.19634,60.17223 -60.19633,60.1723 z"
     id="path28" /><path
     style="fill:#5d37a2;stroke-width:3.28523"
     d="m 337.91006,588.57062 -24.06813,-21.98183 60.15375,-60.2617 60.15376,-60.2617 7.90013,7.90566 7.90017,7.90563 -11.45926,14.25671 c -25.57187,31.81448 -52.22266,77.6422 -71.89819,123.63359 l -4.61414,10.78546 z"
     id="path29" /><path
     style="fill:#083a42;stroke-width:3.28523"
     d="m 151.61228,522.91915 c 2.98541,-11.92219 41.56969,-93.32916 44.23123,-93.32118 1.07763,0.003 6.34015,6.94448 11.69445,15.42503 5.35429,8.48054 17.61187,26.40541 27.23902,39.83299 9.62717,13.42764 17.00923,24.9089 16.40462,25.51396 -2.33082,2.33244 -67.40233,17.61995 -84.23471,19.7896 l -17.7196,2.28402 z"
     id="path30" /><path
     style="fill:#083a42;stroke-width:3.28523"
     d="m 345.53575,706.46951 c 2.2748,-18.30963 16.63237,-79.30784 19.29423,-81.97155 0.72346,-0.72399 15.16277,8.5062 32.08729,20.51151 16.92454,12.00535 34.88428,23.96832 39.9105,26.58443 5.02624,2.61607 8.24375,6.2055 7.15,7.9765 -3.64753,5.90592 -88.50253,45.79579 -97.41824,45.79579 -2.18722,0 -2.5468,-6.63762 -1.02378,-18.89668 z"
     id="path31" /><path
     style="fill:#083a42;stroke-width:3.28523"
     d="m 527.85391,711.08854 c -45.11708,-20.60106 -62.39772,-29.45559 -62.39772,-31.97219 0,-1.21942 12.0024,-10.10247 26.67201,-19.74006 14.6696,-9.63758 31.84081,-21.63341 38.15825,-26.65735 6.31745,-5.02397 12.66123,-8.40782 14.09735,-7.51961 2.77939,1.71895 17.64028,62.80903 20.9691,86.19975 1.43838,10.10722 0.84252,13.96273 -2.15623,13.95121 -2.27915,-0.009 -18.18341,-6.42654 -35.34276,-14.26175 z"
     id="path32" /><path
     style="fill:#083a42;stroke-width:3.28523"
     d="m 721.61522,526.36892 c -35.40016,-7.5926 -62.39772,-15.44094 -62.39772,-18.13938 0,-1.40054 3.49557,-6.72679 7.76794,-11.83613 4.27239,-5.10932 16.65512,-22.85847 27.51726,-39.44252 l 19.74926,-30.15281 21.3836,44.94154 c 28.07886,59.01284 28.29827,59.79988 16.5788,59.46896 -5.08892,-0.14382 -18.85852,-2.32154 -30.59914,-4.83966 z"
     id="path33" /><path
     style="fill:#083a42;stroke-width:3.28523"
     d="m 705.99113,400.77099 c -3.79936,-6.74226 -15.84904,-24.7838 -26.77703,-40.09234 -10.92797,-15.30854 -18.70189,-29.00172 -17.27535,-30.42925 3.43668,-3.43907 59.94308,-17.6004 82.17775,-20.59494 17.36801,-2.33914 17.54695,-2.2757 15.18171,5.38165 -3.88896,12.59015 -32.74596,75.86502 -39.84944,87.37805 l -6.54968,10.61545 z"
     id="path34" /><path
     style="fill:#083a42;stroke-width:3.28523"
     d="m 527.54841,204.98498 c -8.02762,-6.13379 -25.99922,-18.60187 -39.93688,-27.70684 l -25.34123,-16.55445 28.68669,-14.59383 c 35.19432,-17.90451 72.53719,-33.61068 74.71971,-31.42661 3.81958,3.82221 -15.144,92.3255 -21.18903,98.88939 -1.28899,1.39959 -8.91164,-2.47382 -16.93926,-8.60766 z"
     id="path35" /><path
     style="fill:#083a42;stroke-width:3.28523"
     d="m 357.55566,190.50802 c -8.2339,-30.7801 -15.30144,-72.52554 -12.71657,-75.11227 2.28206,-2.28363 59.30313,21.70104 85.10177,35.79626 l 18.67215,10.20161 -17.35097,10.45937 c -9.54302,5.75266 -27.75789,18.034 -40.47748,27.29191 -12.71962,9.25792 -23.86658,16.83258 -24.77108,16.83258 -0.90451,0 -4.71051,-11.46127 -8.45782,-25.46946 z"
     id="path36" /><path
     style="fill:#083a42;stroke-width:3.28523"
     d="m 175.60722,371.25884 c -25.66567,-54.06666 -29.21824,-63.26374 -24.43505,-63.25826 16.8539,0.0207 96.22495,18.22172 98.99216,22.70228 0.70394,1.13978 -5.35977,10.91605 -13.47488,21.72497 -8.11513,10.80896 -20.02506,28.15612 -26.46647,38.5493 -6.44143,10.39316 -12.7407,18.89669 -13.9984,18.89669 -1.25767,0 -10.53551,-17.37675 -20.61736,-38.61498 z"
     id="path37" /></g></svg>
